# xmcd
#
# Track frame offsets:
#	150
#	48332
#	68558
#	88508
#	115860
#	130667
#	146875
#	172290
#	186864
#
# Disc length: 2737 seconds
#
# Revision: 2
# Processed by: cddbd v1.5.1PL2 Copyright (c) Steve Scherf et al.
# Submitted via: EasyCDDAExtractor 8.0.2.1
#
DISCID=7f0aaf09
DTITLE=Alice Cooper - Medina Ballroom Medina 23-07-98 Disc 2
DYEAR=1998
DGENRE=Hard Rock
TTITLE0=Halo Of Flies Incl Drum Solo
TTITLE1=Nothing's Free
TTITLE2=Cleansed By Fire
TTITLE3=Poison
TTITLE4=Cold Ethyl
TTITLE5=Unfinished Sweet
TTITLE6=School's Out
TTITLE7=Jailhouse Rock
TTITLE8=Band Introduction - Under My Wheels
EXTD=
EXTT0=
EXTT1=
EXTT2=
EXTT3=
EXTT4=
EXTT5=
EXTT6=
EXTT7=
EXTT8=
PLAYORDER=
